<?xml version="1.0" encoding="utf-8"?>
<!-- Generator: Adobe Illustrator 22.1.0, SVG Export Plug-In . SVG Version: 6.00 Build 0)  -->
<svg version="1.1" id="Layer_1" xmlns:sketch="http://www.bohemiancoding.com/sketch/ns"
	 xmlns="http://www.w3.org/2000/svg" xmlns:xlink="http://www.w3.org/1999/xlink" x="0px" y="0px" viewBox="0 0 18 18"
	 style="enable-background:new 0 0 18 18;" xml:space="preserve">
<style type="text/css">
	.st0{fill:#8A8A8A;}
</style>
<title>chevron-down</title>
<desc>Created with Sketch Beta.</desc>
<path class="st0" d="M10.1,9l7.7-7.8c0.3-0.2,0.3-0.8,0-1c-0.3-0.3-0.8-0.3-1.1,0L9,8L1.3,0.2C1-0.1,0.5-0.1,0.2,0.2s-0.3,0.8,0,1
	L7.9,9l-7.7,7.8c-0.3,0.2-0.3,0.8,0,1c0.3,0.3,0.8,0.3,1.1,0L9,10l7.7,7.7c0.3,0.3,0.8,0.3,1.1,0c0.3-0.3,0.3-0.8,0-1L10.1,9z"/>
</svg>
