<?xml version="1.0" encoding="utf-8"?>
<!-- Generator: Adobe Illustrator 22.1.0, SVG Export Plug-In . SVG Version: 6.00 Build 0)  -->
<svg version="1.1" id="Layer_1" xmlns="http://www.w3.org/2000/svg" xmlns:xlink="http://www.w3.org/1999/xlink" x="0px" y="0px"
	 viewBox="0 0 200 200" style="enable-background:new 0 0 200 200;" xml:space="preserve">
<style type="text/css">
	.st0{fill:#05B3A7;}
	.st1{fill:#00898C;}
	.st2{fill:#2AFDBD;}
</style>
<g>
	<path class="st0" d="M50,130.7c0-38.3,31-69.3,69.3-69.3s69.3,31,69.3,69.3c0,15.2-4.9,29.2-13.1,40.6L200,200c0,0-70.1,0-81.8,0
		c0.2,0,0.5,0,0.7,0C80.8,199.8,50,168.8,50,130.7z"/>
	<path class="st1" d="M119.7,126.6l-51.2,51.2c0,0-15.7-15.8-18-39.2L119.7,126.6z"/>
	<path class="st2" d="M150,69.3C150,31,119,0,80.7,0S11.4,31,11.4,69.3c0,15.2,4.9,29.2,13.1,40.6L0,138.6c0,0,70.1,0,81.8,0
		c-0.2,0-0.5,0-0.7,0C119.2,138.4,150,107.5,150,69.3z"/>
</g>
</svg>
