<?xml version="1.0" encoding="utf-8"?>
<!-- Generator: Adobe Illustrator 22.1.0, SVG Export Plug-In . SVG Version: 6.00 Build 0)  -->
<svg version="1.1" id="Layer_1" xmlns="http://www.w3.org/2000/svg" xmlns:xlink="http://www.w3.org/1999/xlink" x="0px" y="0px"
	 viewBox="0 0 200 200" style="enable-background:new 0 0 200 200;" xml:space="preserve">
<style type="text/css">
	.st0{fill:none;}
	.st1{fill:#05B3A7;}
	.st2{fill:#00898C;}
	.st3{fill:#2AFDBD;}
</style>
<g>
	<path class="st0" d="M60,4c-3.3,0-6,2.7-6,6v0.5c4-0.6,8-0.7,12-0.1V10C66,6.7,63.3,4,60,4z"/>
	<g>
		<path class="st1" d="M195.5,175.2c-2.3-1-5,0-6,2.3c-1.1,2.4-2.5,4.5-4.3,6.4c-1.2,1.2-1.6,2.9-1.2,4.5c0.5,1.6,1.7,2.8,3.3,3.2
			c1.6,0.4,3.3-0.1,4.4-1.4c2.5-2.6,4.5-5.6,6-8.9C198.9,178.9,197.8,176.2,195.5,175.2z"/>
		<path class="st1" d="M195.1,150.2c-1.4-2.1-4.3-2.6-6.3-1.2c-2.1,1.4-2.6,4.3-1.2,6.3c1.5,2.1,2.5,4.5,3.2,7
			c0.4,1.6,1.6,2.9,3.2,3.4c1.6,0.5,3.3,0,4.5-1.2c1.2-1.2,1.6-2.9,1.1-4.5C198.7,156.5,197.2,153.2,195.1,150.2z"/>
		<path class="st1" d="M136.7,119.7c0.4,0.1,0.7,0.1,1.1,0.1c2.1,0,3.9-1.4,4.4-3.5c0.6-2.3,1.7-4.5,3.2-6.4c1.1-1.2,1.4-3,0.9-4.5
			c-0.6-1.6-1.9-2.7-3.5-3c-1.6-0.3-3.3,0.4-4.3,1.6c-2.4,2.9-4.2,6.3-5.1,10c-0.3,1.2-0.1,2.4,0.5,3.5
			C134.5,118.6,135.5,119.4,136.7,119.7z"/>
		<path class="st1" d="M170.7,190.7c-1,0.1-2,0.2-3,0.2H162c-2.5,0-4.6,2-4.6,4.6c0,2.5,2,4.6,4.6,4.6h5.7c1.4,0,2.7-0.1,4.1-0.3
			c2.5-0.3,4.3-2.6,3.9-5.1C175.4,192.1,173.2,190.4,170.7,190.7L170.7,190.7z"/>
		<path class="st1" d="M178,137.6c-3-0.9-6.2-1.4-9.3-1.4h-1.2c-2.5,0-4.6,2-4.6,4.6c0,2.5,2,4.6,4.6,4.6h1.2c2.3,0,4.5,0.3,6.7,1
			c0.4,0.1,0.9,0.2,1.3,0.2c2.3,0,4.2-1.7,4.5-3.9C181.5,140.4,180.2,138.2,178,137.6L178,137.6z"/>
		<path class="st1" d="M55.8,190.9h-9.3c-2.5,0-4.6,2-4.6,4.6c0,2.5,2,4.6,4.6,4.6h9.3c2.5,0,4.6-2,4.6-4.6
			C60.4,192.9,58.3,190.9,55.8,190.9z"/>
		<path class="st1" d="M150.7,134.5c-2.2-1.1-4.1-2.6-5.5-4.5c-1.5-2-4.4-2.3-6.4-0.8c-2,1.5-2.3,4.4-0.8,6.4c2.3,3,5.3,5.4,8.7,7.1
			c2.2,1,4.9,0.1,6-2.1C153.7,138.4,152.9,135.7,150.7,134.5z"/>
		<path class="st1" d="M84.7,190.9h-9.3c-2.5,0-4.6,2-4.6,4.6c0,2.5,2,4.6,4.6,4.6h9.3c2.5,0,4.6-2,4.6-4.6
			C89.2,192.9,87.2,190.9,84.7,190.9z"/>
		<path class="st1" d="M142.4,190.9h-9.3c-2.5,0-4.6,2-4.6,4.6c0,2.5,2,4.6,4.6,4.6h9.3c2.5,0,4.6-2,4.6-4.6
			C147,192.9,144.9,190.9,142.4,190.9z"/>
		<path class="st1" d="M167.7,104.3c2.5,0,4.6-2,4.6-4.6s-2-4.6-4.6-4.6h-9.3c-2.5,0-4.6,2-4.6,4.6s2,4.6,4.6,4.6H167.7z"/>
		<path class="st1" d="M113.6,190.9h-9.3c-2.5,0-4.6,2-4.6,4.6c0,2.5,2,4.6,4.6,4.6h9.3c2.5,0,4.6-2,4.6-4.6
			C118.1,192.9,116.1,190.9,113.6,190.9z"/>
	</g>
	<g>
		<path class="st1" d="M102.2,106.6c0,38.4-51,74.3-51,74.3s-51-35.9-51-74.3c0-28.2,22.8-51,51-51S102.2,78.4,102.2,106.6z"/>
		<path class="st2" d="M35.1,167.5l37.5-33.8c8.3-6.4,13.6-16.4,13.6-27.7c0-19.3-15.7-35-35-35c-9.3,0-17.7,3.6-23.9,9.5l-27,26.1
			C0.2,130.6,20.1,153.6,35.1,167.5z"/>
		<circle class="st3" cx="51.2" cy="106" r="35"/>
	</g>
	<g>
		<path class="st1" d="M198,35c0,26.4-35,51-35,51s-35-24.6-35-51c0-19.3,15.7-35,35-35S198,15.7,198,35z"/>
		<path class="st2" d="M151.9,76.8l25.7-23.2c5.7-4.4,9.4-11.3,9.4-19c0-13.3-10.8-24-24-24c-6.4,0-12.1,2.5-16.4,6.5L128,35
			C128,51.5,141.6,67.3,151.9,76.8z"/>
		<circle class="st3" cx="162.9" cy="34.6" r="24"/>
	</g>
</g>
</svg>
