<svg id="Layer_1" xmlns="http://www.w3.org/2000/svg" viewBox="0 0 200 200"><style>.st0{fill:#2afdbd}.st1{fill:#05b3a7}</style><path class="st0" d="M171.4 56.7v-18c-.1-10.6-6.3-20.2-15.9-24.6-1.8-.8-3.6-1.5-5.5-2V10c0-5.5-4.5-10-10-10s-10 4.5-10 10v1.9c-2.1.6-4.1 1.3-6.1 2.2-7.9 3.6-16.5 12.5-16.5 24.6v18c.2 12.8-4.8 25.1-14 34l19 3.3c21.4 3.7 33.3 3.7 54.7 0l19-3.3c-9.4-8.9-14.7-21.1-14.7-34zM134 10c0-3.3 2.7-6 6-6s6 2.7 6 6v.4c-4-.6-8-.5-12 .1V10z"/><path class="st1" d="M88.2 72.6c-.5 0-1-.2-1.4-.6-9-9.1-9-23.7 0-32.8.5-.5 1.2-.7 1.9-.5.7.2 1.2.7 1.4 1.4.2.7 0 1.4-.5 1.9-7.5 7.5-7.5 19.6 0 27.1.6.6.7 1.4.4 2.2-.3.8-1 1.3-1.8 1.3z"/><path class="st1" d="M96.6 68.1c-.5 0-1-.2-1.4-.6-6.7-6.7-6.7-17.5 0-24.2.5-.5 1.2-.7 1.9-.5.7.2 1.2.7 1.4 1.4s0 1.4-.5 1.9c-5.1 5.1-5.1 13.4 0 18.6.6.6.7 1.4.4 2.2-.3.7-1 1.2-1.8 1.2zM191.8 72.6c-.8 0-1.5-.5-1.8-1.2-.3-.7-.1-1.6.4-2.2 7.5-7.5 7.5-19.6 0-27.1-.8-.8-.8-2 0-2.8s2-.8 2.8 0c9 9.1 9 23.7 0 32.8-.4.3-.9.5-1.4.5z"/><path class="st1" d="M183.4 68.1c-.8 0-1.5-.5-1.8-1.2-.3-.7-.1-1.6.4-2.2 5.1-5.1 5.1-13.4 0-18.6-.5-.5-.7-1.2-.5-1.9.2-.7.7-1.2 1.4-1.4.7-.2 1.4 0 1.9.5 6.7 6.7 6.7 17.5 0 24.2-.4.4-.9.6-1.4.6zM55 100L5 140v60h57v-42h26v42h17v-60z"/><path class="st1" d="M55 92.3l-55 44v7.9l55-44 55 44v-7.9z"/><path class="st0" d="M26.3 158h15v24h-15z"/><path class="st1" d="M105 158h90v42h-90z"/><path class="st1" d="M110 150.1h90v8.1h-90z"/><path fill="#00898c" d="M119.7 168h60v32h-60z"/><path class="st1" d="M126.7 96c.1 7.1 5.9 12.9 13 12.9 7.2 0 13-5.8 13-12.9-9.2.9-17 1-26 0z"/></svg>