<svg id="Layer_1" xmlns="http://www.w3.org/2000/svg" viewBox="0 0 200 200"><style>.st1{fill:#05b3a7}.st2{fill:#00898c}.st3{fill:#2afdbd}</style><path d="M60 4a6 6 0 0 0-6 6v.5c4-.6 8-.7 12-.1V10a6 6 0 0 0-6-6z" fill="none"/><path class="st1" d="M195.5 175.2c-2.3-1-5 0-6 2.3a23.2 23.2 0 0 1-4.3 6.4c-1.2 1.2-1.6 2.9-1.2 4.5a4.6 4.6 0 0 0 3.3 3.2c1.6.4 3.3-.1 4.4-1.4 2.5-2.6 4.5-5.6 6-8.9 1.2-2.4.1-5.1-2.2-6.1zM195.1 150.2a4.5 4.5 0 1 0-7.5 5.1c1.5 2.1 2.5 4.5 3.2 7a4.8 4.8 0 0 0 3.2 3.4c1.6.5 3.3 0 4.5-1.2a4.4 4.4 0 0 0 1.1-4.5 30 30 0 0 0-4.5-9.8zM136.7 119.7l1.1.1c2.1 0 3.9-1.4 4.4-3.5.6-2.3 1.7-4.5 3.2-6.4 1.1-1.2 1.4-3 .9-4.5a4.6 4.6 0 0 0-3.5-3c-1.6-.3-3.3.4-4.3 1.6a25 25 0 0 0-5.1 10c-.3 1.2-.1 2.4.5 3.5a4.4 4.4 0 0 0 2.8 2.2zM170.7 190.7l-3 .2H162c-2.5 0-4.6 2-4.6 4.6 0 2.5 2 4.6 4.6 4.6h5.7c1.4 0 2.7-.1 4.1-.3a4.5 4.5 0 0 0 3.9-5.1 4.4 4.4 0 0 0-5-4zM178 137.6c-3-.9-6.2-1.4-9.3-1.4h-1.2c-2.5 0-4.6 2-4.6 4.6 0 2.5 2 4.6 4.6 4.6h1.2c2.3 0 4.5.3 6.7 1l1.3.2c2.3 0 4.2-1.7 4.5-3.9.3-2.3-1-4.5-3.2-5.1zM55.8 190.9h-9.3c-2.5 0-4.6 2-4.6 4.6 0 2.5 2 4.6 4.6 4.6h9.3c2.5 0 4.6-2 4.6-4.6 0-2.6-2.1-4.6-4.6-4.6zM150.7 134.5a15.2 15.2 0 0 1-5.5-4.5 4.6 4.6 0 0 0-6.4-.8 4.6 4.6 0 0 0-.8 6.4 25 25 0 0 0 8.7 7.1c2.2 1 4.9.1 6-2.1 1-2.2.2-4.9-2-6.1zM84.7 190.9h-9.3c-2.5 0-4.6 2-4.6 4.6 0 2.5 2 4.6 4.6 4.6h9.3c2.5 0 4.6-2 4.6-4.6a4.7 4.7 0 0 0-4.6-4.6zM142.4 190.9h-9.3c-2.5 0-4.6 2-4.6 4.6 0 2.5 2 4.6 4.6 4.6h9.3c2.5 0 4.6-2 4.6-4.6 0-2.6-2.1-4.6-4.6-4.6zM167.7 104.3c2.5 0 4.6-2 4.6-4.6s-2-4.6-4.6-4.6h-9.3c-2.5 0-4.6 2-4.6 4.6s2 4.6 4.6 4.6h9.3zM113.6 190.9h-9.3c-2.5 0-4.6 2-4.6 4.6 0 2.5 2 4.6 4.6 4.6h9.3c2.5 0 4.6-2 4.6-4.6a4.7 4.7 0 0 0-4.6-4.6z"/><g><path class="st1" d="M102.2 106.6c0 38.4-51 74.3-51 74.3S.2 145 .2 106.6a51 51 0 1 1 102 0z"/><path class="st2" d="M35.1 167.5l37.5-33.8a35 35 0 1 0-45.3-53.2l-27 26.1c-.1 24 19.8 47 34.8 60.9z"/><circle class="st3" cx="51.2" cy="106" r="35"/></g><g><path class="st1" d="M198 35c0 26.4-35 51-35 51s-35-24.6-35-51a35 35 0 0 1 70 0z"/><path class="st2" d="M151.9 76.8l25.7-23.2a24 24 0 1 0-31-36.5L128 35c0 16.5 13.6 32.3 23.9 41.8z"/><circle class="st3" cx="162.9" cy="34.6" r="24"/></g></svg>