<?xml version="1.0" encoding="utf-8"?>
<!-- Generator: Adobe Illustrator 23.0.1, SVG Export Plug-In . SVG Version: 6.00 Build 0)  -->
<svg version="1.1" id="Layer_2" xmlns="http://www.w3.org/2000/svg" xmlns:xlink="http://www.w3.org/1999/xlink" x="0px" y="0px"
	 viewBox="0 0 673.9 851.1" style="enable-background:new 0 0 673.9 851.1;" xml:space="preserve">
<style type="text/css">
	.st0{fill:url(#SVGID_1_);}
	.st1{fill:#FFFFFF;}
</style>
<g>
	<g>
		<linearGradient id="SVGID_1_" gradientUnits="userSpaceOnUse" x1="336.75" y1="0.3031" x2="336.75" y2="850.6968">
			<stop  offset="0" style="stop-color:#26E0AF"/>
			<stop  offset="0.6321" style="stop-color:#24D2AA"/>
			<stop  offset="0.9972" style="stop-color:#22C8A6"/>
		</linearGradient>
		<path class="st0" d="M339.1,849.7c266.3-271.9,300.6-364.5,300.6-364.5c22-44.7,34.3-95,34.3-148.2c0-186-150.8-336.7-336.7-336.7
			h-0.9C150.3,0.3-0.4,151.1-0.4,337c0,53.2,12.3,103.5,34.3,148.2c0,0,34.2,92.6,300.6,364.5c0.6,0.6,1.4,1,2.3,1l0,0
			C337.6,850.7,338.5,850.3,339.1,849.7z"/>
	</g>
	<g>
		<path class="st1" d="M529.9,314.3H412.4c-21.2,0-38.3,17.1-38.3,38.3v0c0,21.2,17.1,38.3,38.3,38.3h41.4c5.3,0,9.2,1.7,11.9,5.2
			c2.6,3.4,2.7,7.6,0.3,12.5c-2.8,7.3-6.9,14.4-12.2,21.3c-9.3,12.2-19.7,22.3-31,30.4c-11.8,8.5-24.7,15-38.9,19.5
			c-14.2,4.9-29,7.3-44.4,7.3c-20.3,0-39.1-4.3-56.5-12.8c-18.2-8.1-33.6-19-46.2-32.8c-13-13.8-23.5-29.8-31.6-48
			c-7.7-17.8-11.6-37.1-11.6-57.7c0-20.3,3.8-39.5,11.6-57.7c8.1-18.2,18.6-34.2,31.6-48c12.2-13.4,27.6-24.5,46.2-33.4
			c18.2-8.1,37.1-12.2,56.5-12.2c23.9,0,46.6,6.5,68.1,19.5c7,4.1,18.1,12.8,19.9,14.3c0.2,0.2,0.4,0.3,0.5,0.5l0.1,0.1
			c16.3,16.3,42.8,17.4,59.6,1.7c17.6-16.5,17.9-44.2,0.9-61.1l-0.7-0.6c-11.5-9.7-24.1-18.4-37.9-25.9c-33.2-18.6-70.1-28-110.6-28
			c-31.6,0-61.4,6.1-89.4,18.2c-27.6,12.2-52.1,28.6-73.6,49.2c-10.5,10.5-20,21.9-28.3,34c-8.3,12.2-15.5,25.3-21.6,39.5
			c-12.2,28.8-18.2,58.8-18.2,90c0,31.6,6.1,61.4,18.2,89.4c11.7,27.2,28.4,51.5,49.8,72.9c21.1,21.1,45.6,37.7,73.6,49.8
			c28,12.2,57.7,18.2,89.4,18.2c28.8,0,56.3-4.9,82.7-14.6c26.3-9.7,49.4-23.3,69.3-40.7c19.9-17,36.3-37.5,49.2-61.4
			c11.9-22,19.3-46.5,22.1-73.6l0.6-5.2c0.3-2,1.4-12,1.6-18.7v-2.8C565,329.6,549.2,314,529.9,314.3L529.9,314.3z"/>
	</g>
</g>
</svg>
