<?xml version="1.0" encoding="utf-8"?>
<!-- Generator: Adobe Illustrator 22.1.0, SVG Export Plug-In . SVG Version: 6.00 Build 0)  -->
<svg version="1.1" id="Layer_1" xmlns="http://www.w3.org/2000/svg" xmlns:xlink="http://www.w3.org/1999/xlink" x="0px" y="0px"
	 viewBox="0 0 200 200" style="enable-background:new 0 0 200 200;" xml:space="preserve">
<style type="text/css">
	.st0{fill:#2AFDBD;}
	.st1{fill:#05B3A7;}
	.st2{fill:#00898C;}
</style>
<g>
	<path class="st0" d="M171.4,56.7v-18c-0.1-10.6-6.3-20.2-15.9-24.6c-1.8-0.8-3.6-1.5-5.5-2V10c0-5.5-4.5-10-10-10s-10,4.5-10,10
		v1.9c-2.1,0.6-4.1,1.3-6.1,2.2c-7.9,3.6-16.5,12.5-16.5,24.6v18c0.2,12.8-4.8,25.1-14,34l19,3.3c21.4,3.7,33.3,3.7,54.7,0l19-3.3
		C176.7,81.8,171.4,69.6,171.4,56.7z M134,10c0-3.3,2.7-6,6-6c3.3,0,6,2.7,6,6v0.4c-4-0.6-8-0.5-12,0.1V10z"/>
	<path class="st1" d="M88.2,72.6c-0.5,0-1-0.2-1.4-0.6c-9-9.1-9-23.7,0-32.8c0.5-0.5,1.2-0.7,1.9-0.5c0.7,0.2,1.2,0.7,1.4,1.4
		c0.2,0.7,0,1.4-0.5,1.9c-7.5,7.5-7.5,19.6,0,27.1c0.6,0.6,0.7,1.4,0.4,2.2C89.7,72.1,89,72.6,88.2,72.6L88.2,72.6z"/>
	<path class="st1" d="M96.6,68.1c-0.5,0-1-0.2-1.4-0.6c-6.7-6.7-6.7-17.5,0-24.2c0.5-0.5,1.2-0.7,1.9-0.5c0.7,0.2,1.2,0.7,1.4,1.4
		s0,1.4-0.5,1.9c-5.1,5.1-5.1,13.4,0,18.6c0.6,0.6,0.7,1.4,0.4,2.2C98.1,67.6,97.4,68.1,96.6,68.1L96.6,68.1z"/>
	<path class="st1" d="M191.8,72.6c-0.8,0-1.5-0.5-1.8-1.2c-0.3-0.7-0.1-1.6,0.4-2.2c7.5-7.5,7.5-19.6,0-27.1c-0.8-0.8-0.8-2,0-2.8
		s2-0.8,2.8,0c9,9.1,9,23.7,0,32.8C192.8,72.4,192.3,72.6,191.8,72.6L191.8,72.6z"/>
	<path class="st1" d="M183.4,68.1c-0.8,0-1.5-0.5-1.8-1.2c-0.3-0.7-0.1-1.6,0.4-2.2c5.1-5.1,5.1-13.4,0-18.6
		c-0.5-0.5-0.7-1.2-0.5-1.9c0.2-0.7,0.7-1.2,1.4-1.4c0.7-0.2,1.4,0,1.9,0.5c6.7,6.7,6.7,17.5,0,24.2
		C184.4,67.9,183.9,68.1,183.4,68.1z"/>
	<path class="st1" d="M150.7,106.9"/>
	<polygon class="st1" points="55,100 5,140 5,200 62,200 62,158 88,158 88,200 105,200 105,140 	"/>
	<polygon class="st1" points="55,92.3 0,136.3 0,144.2 55,100.2 110,144.2 110,136.3 	"/>
	<rect x="26.3" y="158" class="st0" width="15" height="24"/>
	<rect x="105" y="158" class="st1" width="90" height="42"/>
	<rect x="110" y="150.1" class="st1" width="90" height="8.1"/>
	<rect x="119.7" y="168" class="st2" width="60" height="32"/>
	<g>
		<path class="st1" d="M126.7,96c0.1,7.1,5.9,12.9,13,12.9c7.2,0,13-5.8,13-12.9C143.5,96.9,135.7,97,126.7,96z"/>
	</g>
</g>
</svg>
