<?xml version="1.0" encoding="utf-8"?>
<!-- Generator: Adobe Illustrator 22.1.0, SVG Export Plug-In . SVG Version: 6.00 Build 0)  -->
<svg version="1.1" id="Layer_1" xmlns="http://www.w3.org/2000/svg" xmlns:xlink="http://www.w3.org/1999/xlink" x="0px" y="0px"
	 viewBox="0 0 200 200" style="enable-background:new 0 0 200 200;" xml:space="preserve">
<style type="text/css">
	.st0{fill:#05B3A7;}
	.st1{fill:#2AFDBD;}
	.st2{fill:#00898C;}
</style>
<g>
	<circle class="st0" cx="150" cy="106.9" r="27.8"/>
	<circle class="st0" cx="50" cy="106.9" r="27.8"/>
	<circle class="st1" cx="100" cy="137.8" r="19.4"/>
	<path class="st1" d="M100,83c-2.7,0-5.3-1.2-7.1-3.6L85.4,69C75.4,55.4,70,38.9,70,22V0h30L100,83z"/>
	<path class="st0" d="M100,83c2.7,0,5.3-1.2,7.1-3.6l7.5-10.3C124.6,55.4,130,38.9,130,22V0l-30,0L100,83z"/>
	<path class="st0" d="M200,195.8c0-27.6-22.4-50-50-50s-50,22.4-50,50H200z"/>
	<path class="st0" d="M100,195.8c0-27.6-22.4-50-50-50s-50,22.4-50,50H100z"/>
	<path class="st1" d="M70.4,181.3c0.9-1.4,1.9-2.8,3-4.1C72.3,178.5,71.3,179.9,70.4,181.3z"/>
	<path class="st1" d="M133.7,190.7c0.5,1.7,0.8,3.4,1,5.2C134.5,194.1,134.2,192.3,133.7,190.7z"/>
	<path class="st1" d="M109.6,166.4c-3.1-0.9-6.3-1.4-9.6-1.4c-3.3,0-6.6,0.5-9.6,1.4c6,8.3,9.6,18.5,9.6,29.5
		C100,184.8,103.6,174.6,109.6,166.4z"/>
	<path class="st1" d="M90.4,166.4c-6.7,1.9-12.5,5.7-16.9,10.9C77.8,172.1,83.7,168.3,90.4,166.4z"/>
	<path class="st1" d="M132,185.8c0.7,1.6,1.3,3.2,1.7,4.9C133.3,189,132.7,187.4,132,185.8z"/>
	<path class="st1" d="M126.6,177.2c-1.1-1.3-2.3-2.5-3.6-3.6C124.3,174.7,125.5,175.9,126.6,177.2z"/>
	<path class="st1" d="M109.6,166.4c5,1.4,9.6,3.9,13.4,7.3C119.2,170.3,114.6,167.8,109.6,166.4z"/>
	<path class="st1" d="M126.6,177.2c1.1,1.3,2.1,2.6,3,4.1C128.7,179.9,127.7,178.5,126.6,177.2z"/>
	<path class="st1" d="M129.6,181.3c0.9,1.4,1.7,2.9,2.4,4.5C131.3,184.2,130.5,182.7,129.6,181.3z"/>
	<path class="st2" d="M70.4,181.3C70.4,181.3,70.4,181.3,70.4,181.3c-2.7,4.3-4.5,9.2-5.2,14.5H100c0-11-3.6-21.2-9.6-29.5l0,0
		c0,0,0,0,0,0c-6.7,1.9-12.5,5.7-16.9,10.9c0,0,0,0,0,0C72.3,178.5,71.3,179.9,70.4,181.3z"/>
	<g>
		<path class="st2" d="M65.9,192.1c0.1-0.4,0.2-0.8,0.3-1.2C66.1,191.3,66,191.7,65.9,192.1z"/>
		<path class="st2" d="M66.6,189.5c0.2-0.5,0.3-1,0.5-1.5C66.9,188.5,66.8,189,66.6,189.5z"/>
		<path class="st2" d="M65.7,193.3c0.1-0.4,0.2-0.8,0.2-1.2C65.8,192.5,65.7,192.9,65.7,193.3z"/>
		<path class="st2" d="M66.2,190.9c0.1-0.5,0.3-0.9,0.4-1.4C66.5,190,66.3,190.5,66.2,190.9z"/>
		<path class="st2" d="M65.5,194.3c0.1-0.3,0.1-0.7,0.2-1C65.6,193.6,65.5,193.9,65.5,194.3z"/>
		<path class="st2" d="M65.3,195.5c0.1-0.4,0.1-0.8,0.2-1.2C65.4,194.7,65.4,195.1,65.3,195.5z"/>
		<path class="st2" d="M65.3,195.8L65.3,195.8c0-0.1,0-0.2,0-0.3C65.3,195.6,65.3,195.7,65.3,195.8z"/>
		<path class="st2" d="M67.1,188c0.1-0.3,0.2-0.6,0.3-0.8C67.3,187.5,67.2,187.7,67.1,188z"/>
		<path class="st2" d="M69,183.8c0.1-0.2,0.2-0.4,0.3-0.6C69.2,183.4,69.1,183.6,69,183.8z"/>
		<path class="st2" d="M135,200c0-1.4-0.1-2.8-0.3-4.2c0,0,0,0,0,0c-0.2-1.8-0.6-3.5-1-5.2c0,0,0,0,0,0c-0.5-1.7-1-3.3-1.7-4.9
			c0,0,0,0,0,0c-0.7-1.6-1.5-3.1-2.4-4.5c0,0,0,0,0,0c-0.9-1.4-1.9-2.8-3-4.1c0,0,0,0,0,0c-1.1-1.3-2.3-2.5-3.6-3.6c0,0,0,0,0,0
			c-3.8-3.3-8.4-5.8-13.4-7.3c0,0,0,0,0,0c-6,8.3-9.6,18.5-9.6,29.5H65.3c-0.2,1.4-0.3,2.8-0.3,4.2H135z"/>
		<path class="st2" d="M69.3,183.2c0.4-0.6,0.7-1.3,1.1-1.9C70,181.9,69.7,182.5,69.3,183.2z"/>
		<path class="st2" d="M68.3,185.1c0.2-0.4,0.4-0.9,0.7-1.3C68.7,184.3,68.5,184.7,68.3,185.1z"/>
		<path class="st2" d="M67.4,187.2c0.2-0.4,0.3-0.8,0.5-1.3C67.8,186.4,67.6,186.8,67.4,187.2z"/>
		<path class="st2" d="M68,185.9c0.1-0.3,0.2-0.5,0.4-0.8C68.2,185.4,68.1,185.7,68,185.9z"/>
	</g>
</g>
</svg>
