<svg id="Layer_1" xmlns="http://www.w3.org/2000/svg" viewBox="0 0 200 200"><style>.st0{fill:#05b3a7}.st1{fill:#2afdbd}.st2{fill:#00898c}</style><circle class="st0" cx="150" cy="106.9" r="27.8"/><circle class="st0" cx="50" cy="106.9" r="27.8"/><circle class="st1" cx="100" cy="137.8" r="19.4"/><path class="st1" d="M100 83c-2.7 0-5.3-1.2-7.1-3.6L85.4 69C75.4 55.4 70 38.9 70 22V0h30v83z"/><path class="st0" d="M100 83c2.7 0 5.3-1.2 7.1-3.6l7.5-10.3C124.6 55.4 130 38.9 130 22V0h-30v83zM200 195.8c0-27.6-22.4-50-50-50s-50 22.4-50 50h100zM100 195.8c0-27.6-22.4-50-50-50s-50 22.4-50 50h100z"/><path class="st1" d="M70.4 181.3c.9-1.4 1.9-2.8 3-4.1-1.1 1.3-2.1 2.7-3 4.1zM133.7 190.7c.5 1.7.8 3.4 1 5.2-.2-1.8-.5-3.6-1-5.2zM109.6 166.4c-3.1-.9-6.3-1.4-9.6-1.4s-6.6.5-9.6 1.4c6 8.3 9.6 18.5 9.6 29.5 0-11.1 3.6-21.3 9.6-29.5zM90.4 166.4c-6.7 1.9-12.5 5.7-16.9 10.9 4.3-5.2 10.2-9 16.9-10.9zM132 185.8c.7 1.6 1.3 3.2 1.7 4.9-.4-1.7-1-3.3-1.7-4.9zM126.6 177.2zM109.6 166.4c5 1.4 9.6 3.9 13.4 7.3-3.8-3.4-8.4-5.9-13.4-7.3zM126.6 177.2c1.1 1.3 2.1 2.6 3 4.1-.9-1.4-1.9-2.8-3-4.1zM129.6 181.3z"/><path class="st2" d="M70.4 181.3c-2.7 4.3-4.5 9.2-5.2 14.5H100c0-11-3.6-21.2-9.6-29.5-6.7 1.9-12.5 5.7-16.9 10.9-1.2 1.3-2.2 2.7-3.1 4.1zM65.9 192.1l.3-1.2-.3 1.2z"/><path class="st2" d="M66.6 189.5c.2-.5.3-1 .5-1.5-.2.5-.3 1-.5 1.5zM65.7 193.3c.1-.4.2-.8.2-1.2-.1.4-.2.8-.2 1.2zM66.2 190.9c.1-.5.3-.9.4-1.4-.1.5-.3 1-.4 1.4zM65.5 194.3c.1-.3.1-.7.2-1-.1.3-.2.6-.2 1zM65.3 195.5c.1-.4.1-.8.2-1.2-.1.4-.1.8-.2 1.2zM65.3 195.8v-.3.3zM67.1 188c.1-.3.2-.6.3-.8-.1.3-.2.5-.3.8zM69 183.8l.3-.6-.3.6zM135 200c0-1.4-.1-2.8-.3-4.2-.2-1.8-.6-3.5-1-5.2-.5-1.7-1-3.3-1.7-4.9-.7-1.6-1.5-3.1-2.4-4.5-.9-1.4-1.9-2.8-3-4.1a30.6 30.6 0 0 0-3.6-3.6c-3.8-3.3-8.4-5.8-13.4-7.3-6 8.3-9.6 18.5-9.6 29.5H65.3c-.2 1.4-.3 2.8-.3 4.2h70zM69.3 183.2c.4-.6.7-1.3 1.1-1.9-.4.6-.7 1.2-1.1 1.9zM68.3 185.1c.2-.4.4-.9.7-1.3-.3.5-.5.9-.7 1.3zM67.4 187.2c.2-.4.3-.8.5-1.3-.1.5-.3.9-.5 1.3zM68 185.9c.1-.3.2-.5.4-.8-.2.3-.3.6-.4.8z"/></svg>