<?xml version="1.0" encoding="utf-8"?>
<!-- Generator: Adobe Illustrator 22.1.0, SVG Export Plug-In . SVG Version: 6.00 Build 0)  -->
<svg version="1.1" id="Layer_1" xmlns="http://www.w3.org/2000/svg" xmlns:xlink="http://www.w3.org/1999/xlink" x="0px" y="0px"
	 viewBox="0 0 38 38" style="enable-background:new 0 0 38 38;" xml:space="preserve">
<style type="text/css">
	.st0{fill:#077BBB;}
	.st1{fill:#FFFFFF;}
</style>
<g>
	<circle class="st0" cx="19" cy="19" r="19"/>
	<g>
		<rect x="9.2" y="15.7" class="st1" width="4.3" height="12.9"/>
		<path class="st1" d="M11.4,9.5c-1.5,0-2.4,1-2.4,2.2c0,1.2,0.9,2.2,2.4,2.2h0c1.5,0,2.4-1,2.4-2.2C13.8,10.4,12.9,9.5,11.4,9.5z"
			/>
		<path class="st1" d="M24.1,15.4c-2.3,0-3.3,1.3-3.9,2.1v-1.8h-4.3c0.1,1.2,0,12.9,0,12.9h4.3v-7.2c0-0.4,0-0.8,0.1-1
			c0.3-0.8,1-1.6,2.2-1.6c1.6,0,2.2,1.2,2.2,2.9v6.9H29v-7.4C29,17.2,26.9,15.4,24.1,15.4z M20.2,17.5L20.2,17.5
			C20.2,17.5,20.2,17.5,20.2,17.5L20.2,17.5z"/>
	</g>
</g>
</svg>
