<?xml version="1.0" encoding="utf-8"?>
<!-- Generator: Adobe Illustrator 22.1.0, SVG Export Plug-In . SVG Version: 6.00 Build 0)  -->
<svg version="1.1" id="Layer_1" xmlns="http://www.w3.org/2000/svg" xmlns:xlink="http://www.w3.org/1999/xlink" x="0px" y="0px"
	 viewBox="0 0 200 200" style="enable-background:new 0 0 200 200;" xml:space="preserve">
<style type="text/css">
	.st0{fill:#2AFDBD;}
	.st1{fill:#00898C;}
	.st2{fill:#05B3A7;}
</style>
<g>
	<path class="st0" d="M15.7,127L1.9,137.3c-2.1,1.4-2.6,4.3-1.1,6.4s4.3,2.6,6.4,1.1l13.8-10.3c2.1-1.4,2.6-4.3,1.1-6.4
		C20.6,126.1,17.8,125.6,15.7,127z"/>
	<path class="st0" d="M17,160l-11.3,7.8c-2.1,1.4-2.6,4.3-1.1,6.4c1.4,2.1,4.3,2.6,6.4,1.1l11.3-7.8c2.1-1.4,2.6-4.3,1.1-6.4
		C21.9,159,19.1,158.5,17,160z"/>
	<path class="st0" d="M55.4,170.2l-29.5,21.5c-2.1,1.4-2.6,4.3-1.1,6.4s4.3,2.6,6.4,1.1l29.5-21.5c2.1-1.4,2.6-4.3,1.1-6.4
		S57.4,168.8,55.4,170.2z"/>
	<path class="st1" d="M118.8,81.8l31.8-74.2L148.7,5c-3.9-5.3-11.4-6.6-16.8-2.7L29.2,76.6c-5.3,3.9-6.6,11.4-2.7,16.8l1.9,2.7
		l80.3-7C113.1,88.5,117.2,85.6,118.8,81.8z"/>
	<path class="st2" d="M127.1,85.3c-1.4,3.4-3.9,6.3-7,8.6c-3,2.2-6.6,3.7-10.4,4.1l-0.1,0l-75,6.6l40.9,56.6
		c3.9,5.3,11.4,6.6,16.8,2.7L195,89.5c5.3-3.9,6.6-11.4,2.7-16.8l-40.9-56.6L127.1,85.3z"/>
</g>
</svg>
