<svg width="108" height="109" viewBox="0 0 108 109" fill="none" xmlns="http://www.w3.org/2000/svg">
<path fill-rule="evenodd" clip-rule="evenodd" d="M13.5743 25.9245C9.46794 25.9245 6.12751 29.2649 6.12751 33.3713V75.9245C6.12751 80.0309 9.46794 83.3713 13.5743 83.3713H94.4254C98.5318 83.3713 101.872 80.0309 101.872 75.9245V33.3713C101.872 29.2649 98.5318 25.9245 94.4254 25.9245H13.5743ZM94.4255 85.4989H13.5745C8.29574 85.4989 4 81.2032 4 75.9245V33.3713C4 28.0926 8.29574 23.7968 13.5745 23.7968H94.4255C99.7043 23.7968 104 28.0926 104 33.3713V75.9245C104 81.2032 99.7043 85.4989 94.4255 85.4989Z" fill="#707070"/>
<path d="M13.5743 25.4245C9.19179 25.4245 5.62751 28.9888 5.62751 33.3713H6.62751C6.62751 29.5411 9.74408 26.4245 13.5743 26.4245V25.4245ZM5.62751 33.3713V75.9245H6.62751V33.3713H5.62751ZM5.62751 75.9245C5.62751 80.307 9.19179 83.8713 13.5743 83.8713V82.8713C9.74408 82.8713 6.62751 79.7547 6.62751 75.9245H5.62751ZM13.5743 83.8713H94.4254V82.8713H13.5743V83.8713ZM94.4254 83.8713C98.8079 83.8713 102.372 80.307 102.372 75.9245H101.372C101.372 79.7547 98.2556 82.8713 94.4254 82.8713V83.8713ZM102.372 75.9245V33.3713H101.372V75.9245H102.372ZM102.372 33.3713C102.372 28.9888 98.8079 25.4245 94.4254 25.4245V26.4245C98.2556 26.4245 101.372 29.5411 101.372 33.3713H102.372ZM94.4254 25.4245H13.5743V26.4245H94.4254V25.4245ZM94.4255 84.9989H13.5745V85.9989H94.4255V84.9989ZM13.5745 84.9989C8.57189 84.9989 4.5 80.9271 4.5 75.9245H3.5C3.5 81.4793 8.0196 85.9989 13.5745 85.9989V84.9989ZM4.5 75.9245V33.3713H3.5V75.9245H4.5ZM4.5 33.3713C4.5 28.3687 8.57189 24.2968 13.5745 24.2968V23.2968C8.0196 23.2968 3.5 27.8164 3.5 33.3713H4.5ZM13.5745 24.2968H94.4255V23.2968H13.5745V24.2968ZM94.4255 24.2968C99.4281 24.2968 103.5 28.3687 103.5 33.3713H104.5C104.5 27.8164 99.9804 23.2968 94.4255 23.2968V24.2968ZM103.5 33.3713V75.9245H104.5V33.3713H103.5ZM103.5 75.9245C103.5 80.9271 99.4281 84.9989 94.4255 84.9989V85.9989C99.9804 85.9989 104.5 81.4793 104.5 75.9245H103.5Z" fill="#707070"/>
<path fill-rule="evenodd" clip-rule="evenodd" d="M102.936 42.9458H5.06383C4.4766 42.9458 4 42.4692 4 41.8819C4 41.2947 4.4766 40.8181 5.06383 40.8181H102.936C103.523 40.8181 104 41.2947 104 41.8819C104 42.4692 103.523 42.9458 102.936 42.9458Z" fill="#FF4743"/>
<path fill-rule="evenodd" clip-rule="evenodd" d="M90.1701 55.7117H77.4042C76.8169 55.7117 76.3403 55.2351 76.3403 54.6479C76.3403 54.0606 76.8169 53.584 77.4042 53.584H90.1701C90.7574 53.584 91.2339 54.0606 91.2339 54.6479C91.2339 55.2351 90.7574 55.7117 90.1701 55.7117Z" fill="#FF4743"/>
<path fill-rule="evenodd" clip-rule="evenodd" d="M51.872 55.7117H17.8295C17.2422 55.7117 16.7656 55.2351 16.7656 54.6479C16.7656 54.0606 17.2422 53.584 17.8295 53.584H51.872C52.4592 53.584 52.9358 54.0606 52.9358 54.6479C52.9358 55.2351 52.4592 55.7117 51.872 55.7117Z" fill="#FF4743"/>
<path fill-rule="evenodd" clip-rule="evenodd" d="M30.5954 64.2224H17.8295C17.2422 64.2224 16.7656 63.7458 16.7656 63.1586C16.7656 62.5713 17.2422 62.0947 17.8295 62.0947H30.5954C31.1826 62.0947 31.6592 62.5713 31.6592 63.1586C31.6592 63.7458 31.1826 64.2224 30.5954 64.2224Z" fill="#FF4743"/>
<path fill-rule="evenodd" clip-rule="evenodd" d="M102.936 42.9458H5.06383C4.4766 42.9458 4 42.4692 4 41.8819C4 41.2947 4.4766 40.8181 5.06383 40.8181H102.936C103.523 40.8181 104 41.2947 104 41.8819C104 42.4692 103.523 42.9458 102.936 42.9458Z" fill="#707070"/>
<path d="M102.936 42.9458H5.06383C4.4766 42.9458 4 42.4692 4 41.8819C4 41.2947 4.4766 40.8181 5.06383 40.8181H102.936C103.523 40.8181 104 41.2947 104 41.8819C104 42.4692 103.523 42.9458 102.936 42.9458" stroke="#707070"/>
<path fill-rule="evenodd" clip-rule="evenodd" d="M90.1701 55.7117H77.4042C76.8169 55.7117 76.3403 55.2351 76.3403 54.6479C76.3403 54.0606 76.8169 53.584 77.4042 53.584H90.1701C90.7574 53.584 91.2339 54.0606 91.2339 54.6479C91.2339 55.2351 90.7574 55.7117 90.1701 55.7117Z" fill="#707070"/>
<path d="M90.1701 55.7117H77.4042C76.8169 55.7117 76.3403 55.2351 76.3403 54.6479C76.3403 54.0606 76.8169 53.584 77.4042 53.584H90.1701C90.7574 53.584 91.234 54.0606 91.234 54.6479C91.234 55.2351 90.7574 55.7117 90.1701 55.7117" stroke="#707070"/>
<path fill-rule="evenodd" clip-rule="evenodd" d="M51.872 55.7117H17.8295C17.2422 55.7117 16.7656 55.2351 16.7656 54.6479C16.7656 54.0606 17.2422 53.584 17.8295 53.584H51.872C52.4592 53.584 52.9358 54.0606 52.9358 54.6479C52.9358 55.2351 52.4592 55.7117 51.872 55.7117Z" fill="#707070"/>
<path d="M51.872 55.7117H17.8295C17.2422 55.7117 16.7656 55.2351 16.7656 54.6479C16.7656 54.0606 17.2422 53.584 17.8295 53.584H51.872C52.4592 53.584 52.9358 54.0606 52.9358 54.6479C52.9358 55.2351 52.4592 55.7117 51.872 55.7117" stroke="#707070"/>
<path fill-rule="evenodd" clip-rule="evenodd" d="M30.5954 64.2224H17.8295C17.2422 64.2224 16.7656 63.7458 16.7656 63.1586C16.7656 62.5713 17.2422 62.0947 17.8295 62.0947H30.5954C31.1826 62.0947 31.6592 62.5713 31.6592 63.1586C31.6592 63.7458 31.1826 64.2224 30.5954 64.2224Z" fill="#707070"/>
<path d="M30.5954 64.2224H17.8295C17.2422 64.2224 16.7656 63.7458 16.7656 63.1586C16.7656 62.5713 17.2422 62.0947 17.8295 62.0947H30.5954C31.1826 62.0947 31.6592 62.5713 31.6592 63.1586C31.6592 63.7458 31.1826 64.2224 30.5954 64.2224" stroke="#707070"/>
<rect x="102.143" y="2.87868" width="5.12766" height="141.298" rx="2.56383" transform="rotate(45 102.143 2.87868)" fill="#FF4743" stroke="white" stroke-width="3"/>
<rect x="102.143" y="5" width="2.12766" height="138.298" rx="1.06383" transform="rotate(45 102.143 5)" fill="#707070" stroke="#707070"/>
</svg>
