<?xml version="1.0" encoding="utf-8"?>
<!-- Generator: Adobe Illustrator 22.1.0, SVG Export Plug-In . SVG Version: 6.00 Build 0)  -->
<svg version="1.1" id="Layer_1" xmlns="http://www.w3.org/2000/svg" xmlns:xlink="http://www.w3.org/1999/xlink" x="0px" y="0px"
	 viewBox="0 0 200 200" style="enable-background:new 0 0 200 200;" xml:space="preserve">
<style type="text/css">
	.st0{fill:#05B3A7;}
	.st1{fill:#00898C;}
	.st2{fill:#2AFDBD;}
</style>
<g>
	<g id="Settings">
		<g>
			<path class="st0" d="M199.4,88.9c-0.3-2.8-3.6-4.9-6.4-4.9c-9.2,0-17.3-5.4-20.7-13.7c-3.5-8.5-1.2-18.5,5.6-24.7
				c2.1-2,2.4-5.3,0.6-7.5c-4.7-6-10-11.3-15.8-16c-2.3-1.8-5.6-1.6-7.6,0.6c-6,6.6-16.7,9.1-24.9,5.6c-8.6-3.6-14-12.3-13.5-21.7
				c0.2-2.9-2-5.5-4.9-5.8c-7.5-0.9-15-0.9-22.5-0.1c-2.9,0.3-5,2.8-5,5.7c0.3,9.3-5.2,17.8-13.7,21.3C62.3,31,51.7,28.6,45.7,22
				c-2-2.2-5.3-2.4-7.5-0.6c-6,4.7-11.4,10.1-16.2,16c-1.8,2.3-1.6,5.6,0.6,7.6c7,6.3,9.2,16.3,5.6,25c-3.5,8.2-12,13.5-21.8,13.5
				c-3.2-0.1-5.4,2-5.8,4.9c-0.9,7.5-0.9,15.2,0,22.7c0.3,2.8,3.7,4.9,6.6,4.9c8.7-0.2,17.1,5.2,20.6,13.7
				c3.5,8.5,1.2,18.5-5.6,24.7c-2.1,2-2.4,5.3-0.6,7.5c4.6,5.9,10,11.3,15.8,16c2.3,1.8,5.6,1.6,7.6-0.6c6-6.6,16.7-9.1,24.9-5.6
				c8.6,3.6,14.1,12.3,13.5,21.7c-0.2,2.9,2,5.5,4.9,5.8c3.8,0.4,7.7,0.7,11.5,0.7c3.7,0,7.3-0.2,11-0.6c2.9-0.3,5-2.8,5-5.7
				c-0.3-9.3,5.2-17.8,13.7-21.3c8.2-3.4,18.8-0.9,24.8,5.6c2,2.2,5.2,2.4,7.5,0.6c6-4.7,11.4-10.1,16.2-16c1.8-2.3,1.6-5.6-0.6-7.6
				c-7-6.3-9.2-16.3-5.6-24.9c3.4-8.1,11.6-13.6,20.5-13.6l1.2,0c2.9,0.2,5.5-2,5.9-4.9C200.2,104.1,200.2,96.5,199.4,88.9z
				 M100,153.2c-29.6,0-53.6-24-53.6-53.6c0-29.6,24-53.6,53.6-53.6c29.6,0,53.6,24,53.6,53.6C153.6,129.2,129.6,153.2,100,153.2z"
				/>
		</g>
	</g>
	<path class="st1" d="M100,141.1L100,141.1c-5.5,0-10-4.5-10-10v-30c0-5.5,4.5-10,10-10h0c5.5,0,10,4.5,10,10v30
		C110,136.6,105.5,141.1,100,141.1z"/>
	<path class="st1" d="M100,82.1L100,82.1c-5.5,0-10-4.5-10-10v0c0-5.5,4.5-10,10-10h0c5.5,0,10,4.5,10,10v0
		C110,77.6,105.5,82.1,100,82.1z"/>
	<g>
		<path class="st2" d="M100,164.4c-35.5,0-64.4-28.9-64.4-64.4c0-35.5,28.9-64.4,64.4-64.4c35.5,0,64.4,28.9,64.4,64.4
			C164.4,135.5,135.5,164.4,100,164.4z M100,47.6c-28.9,0-52.4,23.5-52.4,52.4s23.5,52.4,52.4,52.4c28.9,0,52.4-23.5,52.4-52.4
			S128.9,47.6,100,47.6z"/>
	</g>
</g>
</svg>
